<?xml version="1.0" encoding="utf-8"?>
<!-- Generator: Adobe Illustrator 22.0.1, SVG Export Plug-In . SVG Version: 6.00 Build 0)  -->
<svg version="1.1" id="Layer_1" xmlns="http://www.w3.org/2000/svg" xmlns:xlink="http://www.w3.org/1999/xlink" x="0px" y="0px"
	 viewBox="0 0 400 400" style="enable-background:new 0 0 400 400;" xml:space="preserve">
<style type="text/css">
	.st0{fill:#181818;}
</style>
<g>
	<path class="st0" d="M256.8,139.5l-101.1,33.7c-8.9,3-14.3,2.4-18.8,0.2c-4.5-2.3-8.2-6.2-9.9-11.4l0,0c-1.7-5.2-1.2-10.5,1.1-15.1
		c2.3-4.5,6.2-8.2,15.2-11.1l101.1-33.7c8.9-3,14.3-2.4,18.8-0.2c4.5,2.3,8.2,6.2,9.9,11.4v0c1.7,5.2,1.2,10.5-1.1,15.1
		C269.7,132.9,265.7,136.5,256.8,139.5z"/>
	<path class="st0" d="M256.8,201.9l-101.1,33.7c-8.9,3-14.3,2.4-18.8,0.2c-4.5-2.3-8.2-6.2-9.9-11.4l0,0c-1.7-5.2-1.2-10.5,1.1-15.1
		s6.2-8.2,15.2-11.1l101.1-33.7c8.9-3,14.3-2.4,18.8-0.2c4.5,2.3,8.2,6.2,9.9,11.4v0c1.7,5.2,1.2,10.5-1.1,15.1
		C269.7,195.2,265.7,198.9,256.8,201.9z"/>
	<path class="st0" d="M256.8,264.3l-101.1,33.7c-8.9,3-14.3,2.4-18.8,0.2c-4.5-2.3-8.2-6.2-9.9-11.4l0,0c-1.7-5.2-1.2-10.5,1.1-15.1
		s6.2-8.2,15.2-11.1l101.1-33.7c8.9-3,14.3-2.4,18.8-0.2c4.5,2.3,8.2,6.2,9.9,11.4v0c1.7,5.2,1.2,10.5-1.1,15.1
		C269.7,257.6,265.7,261.3,256.8,264.3z"/>
</g>
</svg>
